<?xml version="1.0" encoding="UTF-8"?>
<!DOCTYPE svg PUBLIC "-//W3C//DTD SVG 1.1//EN" "http://www.w3.org/Graphics/SVG/1.1/DTD/svg11.dtd">
<!-- Creator: CorelDRAW -->
<svg xmlns="http://www.w3.org/2000/svg" xml:space="preserve" width="3.71259in" height="1.7804in" version="1.1" style="shape-rendering:geometricPrecision; text-rendering:geometricPrecision; image-rendering:optimizeQuality; fill-rule:evenodd; clip-rule:evenodd"
viewBox="0 0 1845.97 885.25"
 xmlns:xlink="http://www.w3.org/1999/xlink"
 xmlns:xodm="http://www.corel.com/coreldraw/odm/2003">
 <defs>
  <style type="text/css">
   <![CDATA[
    .fil4 {fill:#6497B1}
    .fil1 {fill:#373535;fill-rule:nonzero}
    .fil0 {fill:#20262C;fill-rule:nonzero}
    .fil3 {fill:#3778AE;fill-rule:nonzero}
    .fil2 {fill:#FFD748;fill-rule:nonzero}
   ]]>
  </style>
 </defs>
 <g id="Layer_x0020_1">
  <metadata id="CorelCorpID_0Corel-Layer"/>
  <g id="_48975234368">
   <polygon class="fil0" points="-0,540.05 48.8,244.74 250.26,244.74 240.25,302.93 110.11,302.93 100.73,362.99 217.73,363.62 207.72,421.18 90.72,421.18 71.32,540.05 "/>
   <polygon id="_1" class="fil0" points="347.24,244.74 298.44,540.05 227.74,540.05 276.54,244.74 "/>
   <path id="_2" class="fil0" d="M492.39 444.32l20.65 -125.76 70.7 0 -36.91 221.48 -67.57 0 6.88 -41.29 -1.88 0c-6.88,13.14 -16.89,24.4 -30.66,31.91 -13.14,8.13 -28.15,11.89 -44.42,11.89 -15.02,0 -27.53,-3.13 -38.16,-10.01 -10.01,-6.88 -17.52,-16.89 -21.9,-29.41 -4.38,-12.51 -5.01,-26.9 -2.5,-43.8l23.77 -140.77 70.7 0 -21.27 127.01c-1.88,11.89 0,21.27 5.01,28.15 5.01,7.51 12.51,10.64 23.77,10.64 6.88,0 13.14,-1.25 19.4,-4.38 6.26,-3.13 11.26,-8.13 15.64,-13.76 4.38,-6.26 7.51,-13.14 8.76,-21.9l-0 0z"/>
   <path id="_3" class="fil0" d="M582.48 540.05l36.91 -221.48 70.07 0 -36.91 221.48 -70.07 0zm76.96 -247.76c-10.01,0 -18.14,-3.13 -24.4,-10.01 -6.26,-6.26 -8.76,-14.39 -7.51,-23.15 1.25,-9.38 6.26,-17.52 14.39,-23.77 7.51,-6.88 16.89,-10.01 26.9,-10.01 10.01,0 18.14,3.13 23.77,10.01 6.26,6.26 8.76,14.39 7.51,23.77 -1.25,8.76 -5.63,16.89 -13.76,23.77 -8.13,6.26 -16.89,9.38 -26.9,9.38l0 0z"/>
   <path id="_4" class="fil0" d="M768.93 543.18c-16.89,0 -30.66,-4.38 -42.54,-13.14 -11.89,-8.13 -20.65,-20.65 -25.65,-37.54 -5.63,-16.89 -6.26,-38.16 -1.88,-63.19 4.38,-26.28 11.89,-47.55 23.15,-64.44 11.26,-16.89 23.77,-28.78 38.79,-36.91 14.39,-8.13 29.41,-12.51 45.05,-12.51 11.26,0 21.27,1.88 28.78,6.26 7.51,3.75 13.76,8.76 18.14,15.02 4.38,6.26 6.88,13.14 8.76,19.4l1.88 0 18.14 -111.37 70.7 0 -48.8 295.31 -70.07 0 6.26 -36.29 -2.5 0c-3.75,6.88 -9.38,13.14 -15.64,19.4 -6.88,5.63 -14.39,10.64 -23.15,14.39 -8.76,3.75 -18.77,5.63 -29.41,5.63l-0 0zm33.16 -55.06c8.13,0 16.27,-2.5 23.15,-7.51 6.88,-4.38 12.51,-11.26 17.52,-20.65 4.38,-8.76 8.13,-18.77 10.01,-30.66 1.88,-12.51 1.88,-22.52 0,-31.28 -1.88,-8.76 -5.01,-15.64 -10.64,-20.02 -5.01,-5.01 -12.51,-7.51 -20.65,-7.51 -8.76,0 -16.89,2.5 -23.77,7.51 -6.26,4.38 -11.89,11.26 -16.89,20.02 -4.38,8.76 -7.51,19.4 -9.38,31.28 -1.88,11.89 -2.5,21.9 -0.63,30.66 1.25,9.38 5.01,16.27 10.01,20.65 5.63,5.01 12.51,7.51 21.27,7.51l-0 0z"/>
   <path class="fil1" d="M1593.58 261.91c14.37,15.26 18.22,38.98 11.48,71.09 -7.49,35.06 -21.66,59.81 -42.49,74.32 -20.83,14.51 -47.64,21.72 -80.58,21.72l-63.04 0 -22.55 106.77 -61.6 0 63.04 -296.87 129.25 0c29.84,0 51.98,7.63 66.48,22.96zm-87.38 28.6l-57.82 0 -18.56 87.39 57.82 0c14.64,0 26.81,-3.58 36.44,-10.66 9.69,-7.15 16.16,-18.43 19.39,-33.82 3.37,-15.47 1.65,-26.47 -5.16,-33.07 -6.8,-6.6 -17.46,-9.83 -32.11,-9.83zm153.45 255l-31.83 -229.22 63.87 0 13.48 161.91 79.75 -161.91 61.05 0 -121.28 215.88c-23.31,41.66 -40.29,67.45 -50.81,77.48 -10.59,9.97 -28.53,14.99 -53.9,14.99 -5.09,0 -9.21,0 -12.31,-0.07 -3.09,-0.07 -7.63,-0.34 -13.68,-0.76l9.69 -45.93 7.22 0.41c5.5,0.27 10.86,0.07 16.16,-0.62 5.22,-0.62 9.83,-2.2 13.89,-4.6 3.85,-2.27 8.04,-7.08 12.44,-14.3 4.47,-7.22 6.53,-11.69 6.26,-13.27z"/>
  </g>
  <path class="fil2" d="M1124.38 680.23c-3.7,-14.71 -9.99,-27.55 -18.06,-37.29 -27.63,-55.32 -66.32,-106.29 -73.45,-168.46 -25.65,20.65 -40.67,51.93 -40.67,85.09 0,15.64 3.13,30.66 9.38,45.05 12.83,27.93 32.14,53.79 48.49,81.3 -7.58,17.17 -22.6,28.76 -39.79,31.41 -2.5,0.39 -5.02,0.59 -7.55,0.59l-94.45 0c-0.01,-0 -0.03,-0 -0.05,-0 -3.99,0 -7.97,0.51 -11.83,1.52 -17.39,4.57 -30.29,19.04 -30.29,37.8l0 79.33c0,22.61 22.72,35.86 45,42.34 26.67,7.76 55.72,9.16 87.64,0 21.19,-6.05 41.98,-18.3 41.98,-42.34l0 -26.15 -87.31 0 0 -12.47 115.67 0c3.7,0 7.33,-0.51 10.84,-1.48l-0.15 1.47 0 0c1.02,-0.79 2.01,-1.57 2.99,-2.36 17.01,-5.99 31.16,-22.89 38.91,-45.43 0.22,-0.66 0.44,-1.33 0.65,-1.99 7.82,-17.51 8.53,-34.64 4.97,-51.4 -0.61,-5.57 -1.59,-11.09 -2.94,-16.53l0.01 0zm-123.77 145.77c0.02,0 0.04,0 0.05,0 8.77,0 15.88,7.11 15.88,15.88 0,8.77 -7.11,15.88 -15.88,15.88 -8.77,0 -15.88,-7.11 -15.88,-15.88 0,-0.02 0,-0.04 0,-0.05 0,-0 0,-0.01 0,-0.01 0,-8.73 7.08,-15.82 15.82,-15.82 0,0 0.01,0 0.01,0z"/>
  <path class="fil3" d="M1149.73 205.02c3.7,14.71 9.99,27.55 18.06,37.29 27.63,55.32 66.32,106.29 73.45,168.46 25.65,-20.65 40.67,-51.93 40.67,-85.09 0,-15.64 -3.13,-30.66 -9.38,-45.05 -12.83,-27.93 -32.14,-53.79 -48.49,-81.3 7.58,-17.17 22.6,-28.76 39.79,-31.41 2.5,-0.39 5.02,-0.59 7.55,-0.59l94.45 0c0.01,0 0.03,0 0.05,0 3.99,0 7.97,-0.51 11.83,-1.52 17.39,-4.57 30.29,-19.04 30.29,-37.8l0 -79.33c0,-22.61 -22.72,-35.86 -45,-42.34 -26.67,-7.76 -55.72,-9.16 -87.64,0 -21.19,6.05 -41.98,18.3 -41.98,42.34l0 26.15 87.31 0 0 12.47 -115.67 0c-3.7,0 -7.33,0.51 -10.84,1.48l0.15 -1.47 -0 0c-1.02,0.79 -2.01,1.57 -2.99,2.36 -17.01,5.99 -31.16,22.89 -38.91,45.43 -0.22,0.66 -0.44,1.33 -0.65,1.99 -7.82,17.51 -8.53,34.64 -4.97,51.4 0.61,5.57 1.59,11.09 2.94,16.53l-0.01 0zm123.77 -145.77c-0.02,0 -0.04,0 -0.05,0 -8.77,0 -15.88,-7.11 -15.88,-15.88 0,-8.77 7.11,-15.88 15.88,-15.88 8.77,0 15.88,7.11 15.88,15.88 0,0.02 0,0.04 0,0.05 0,0 0,0.01 0,0.01 0,8.73 -7.08,15.82 -15.82,15.82 -0,0 -0.01,0 -0.01,0z"/>
  <path class="fil4" d="M1106.07 172.28c-3.75,125.76 12.51,168.3 78.21,262.15 33.79,44.42 51.93,98.85 51.93,154.54 0,58.81 -20.02,115.75 -56.31,161.42 4.38,-134.51 -20.02,-160.79 -75.7,-253.39 -55.68,-75.7 -108.24,-232.12 1.88,-324.71z"/>
 </g>
</svg>
