<?xml version="1.0" encoding="UTF-8"?>
<!DOCTYPE svg PUBLIC "-//W3C//DTD SVG 1.1//EN" "http://www.w3.org/Graphics/SVG/1.1/DTD/svg11.dtd">
<!-- Creator: CorelDRAW -->
<svg xmlns="http://www.w3.org/2000/svg" xml:space="preserve" width="1.7804in" height="1.08976in" version="1.1" style="shape-rendering:geometricPrecision; text-rendering:geometricPrecision; image-rendering:optimizeQuality; fill-rule:evenodd; clip-rule:evenodd"
viewBox="0 0 1039.21 636.08"
 xmlns:xlink="http://www.w3.org/1999/xlink"
 xmlns:xodm="http://www.corel.com/coreldraw/odm/2003">
 <defs>
  <style type="text/css">
   <![CDATA[
    .fil1 {fill:#FFD748}
    .fil0 {fill:#FFD748;fill-rule:nonzero}
   ]]>
  </style>
 </defs>
 <g id="Layer_x0020_1">
  <metadata id="CorelCorpID_0Corel-Layer"/>
  <g id="_48359365952">
   <path class="fil0" d="M240.68 303.16c17.27,-4.34 32.34,-11.73 43.78,-21.2 64.94,-32.43 124.77,-77.85 197.76,-86.23 -24.24,-30.11 -60.96,-47.74 -99.89,-47.74 -18.36,0 -35.99,3.67 -52.88,11.02 -32.79,15.06 -63.15,37.74 -95.44,56.93 -20.15,-8.89 -33.76,-26.53 -36.88,-46.7 -0.45,-2.93 -0.69,-5.9 -0.69,-8.87l0 -110.88c0,-0.01 0,-0.04 0,-0.05 0,-4.68 -0.6,-9.36 -1.78,-13.88 -5.36,-20.42 -22.35,-35.55 -44.38,-35.55l-93.13 0c-26.54,0 -42.09,26.67 -49.7,52.83 -9.11,31.31 -10.75,65.41 0,102.88 7.11,24.88 21.48,49.28 49.7,49.28l30.69 0 0 -102.49 14.64 0 0 135.78c0,4.35 0.6,8.6 1.73,12.72l-1.73 -0.18 0 0c0.92,1.19 1.85,2.36 2.77,3.51 7.03,19.96 26.87,36.58 53.33,45.67 0.78,0.26 1.56,0.51 2.34,0.76 20.55,9.19 40.67,10.01 60.33,5.83 6.54,-0.72 13.02,-1.87 19.4,-3.45l0 0.01zm-171.13 -145.29c0,0.02 0,0.04 0,0.06 0,10.29 -8.35,18.64 -18.64,18.64 -10.29,0 -18.64,-8.35 -18.64,-18.64 0,-10.29 8.35,-18.64 18.64,-18.64 0.02,0 0.04,0 0.06,0 0,0 0.01,0 0.01,0 10.25,0 18.57,8.32 18.57,18.57 0,0 0,0.01 0,0.01z"/>
   <path class="fil0" d="M798.53 332.92c-17.27,4.34 -32.34,11.73 -43.78,21.2 -64.94,32.43 -124.77,77.85 -197.76,86.23 24.24,30.11 60.96,47.74 99.89,47.74 18.36,0 35.99,-3.67 52.88,-11.02 32.79,-15.06 63.15,-37.74 95.44,-56.93 20.15,8.89 33.76,26.53 36.88,46.7 0.45,2.93 0.69,5.9 0.69,8.87l0 110.88c-0,0.01 -0,0.04 -0,0.05 0,4.68 0.6,9.36 1.78,13.88 5.36,20.42 22.35,35.55 44.38,35.55l93.13 0c26.54,0 42.09,-26.67 49.7,-52.83 9.11,-31.31 10.75,-65.41 0,-102.88 -7.11,-24.88 -21.48,-49.28 -49.7,-49.28l-30.69 0 0 102.49 -14.64 0 0 -135.78c0,-4.35 -0.6,-8.6 -1.73,-12.72l1.73 0.18 0 -0c-0.92,-1.19 -1.85,-2.36 -2.77,-3.51 -7.03,-19.96 -26.87,-36.58 -53.33,-45.67 -0.78,-0.26 -1.56,-0.51 -2.34,-0.76 -20.55,-9.19 -40.67,-10.01 -60.33,-5.83 -6.54,0.72 -13.02,1.87 -19.4,3.45l0 -0.01zm171.13 145.29c0,-0.02 0,-0.04 0,-0.06 0,-10.29 8.35,-18.64 18.64,-18.64 10.29,0 18.64,8.35 18.64,18.64 0,10.29 -8.35,18.64 -18.64,18.64 -0.02,0 -0.04,0 -0.06,0 -0,0 -0.01,0 -0.01,0 -10.25,0 -18.57,-8.32 -18.57,-18.57 0,-0 0,-0.01 0,-0.01z"/>
   <path class="fil1" d="M836.97 281.67c-147.63,-4.41 -197.57,14.69 -307.74,91.81 -52.15,39.66 -116.04,60.96 -181.41,60.96 -69.04,0 -135.88,-23.5 -189.49,-66.1 157.91,5.14 188.76,-23.5 297.46,-88.87 88.87,-65.37 272.49,-127.06 381.19,2.2z"/>
  </g>
 </g>
</svg>
